# xmcd
#
# Track frame offsets: 
#        150
#        34947
#        57675
#        83528
#        121109
#        150469
#        184472
#        199507
#        222427
#        250209
#        281549
#
# Disc length: 4433 seconds
#
# Revision: 0
# Processed by: cddbd v1.5.1PL0 Copyright (c) Steve Scherf et al.
# Submitted via: ExactAudioCopy v0.95a3
#
DISCID=9a114f0b
DTITLE=Sheila E. - Not Bad 4 A Girl [CD1]
DYEAR=1900
DGENRE=
TTITLE0=The Belle Of St. Mark (Ext)
TTITLE1=Too Sexy (Long)
TTITLE2=Sister Fate (Ext)
TTITLE3=Save The People (Ext)
TTITLE4=Holly Rock (Ext)
TTITLE5=Love On A Blue Train (Ext)
TTITLE6=The World Is High (B-Side)
TTITLE7=Koo Koo (Ext)
TTITLE8=Paradise Gardens (Ext)
TTITLE9=Special Medley Mix (Glamorous Life -- Sister Fate -- A Love Bi
TTITLE9=zarre)
TTITLE10=A Love Bizarre (Romance 1600 Live Video)
EXTD=
EXTT0=
EXTT1=
EXTT2=
EXTT3=
EXTT4=
EXTT5=
EXTT6=
EXTT7=
EXTT8=
EXTT9=
EXTT10=
PLAYORDER=
